<svg id="visual" viewBox="0 0 900 600" width="900" height="600" xmlns="http://www.w3.org/2000/svg" xmlns:xlink="http://www.w3.org/1999/xlink" version="1.1"><rect x="0" y="0" width="900" height="600" fill="#000000"></rect><path d="M0 51L16.7 49.3C33.3 47.7 66.7 44.3 100 43.3C133.3 42.3 166.7 43.7 200 44.2C233.3 44.7 266.7 44.3 300 43.3C333.3 42.3 366.7 40.7 400 39.5C433.3 38.3 466.7 37.7 500 39.5C533.3 41.3 566.7 45.7 600 46C633.3 46.3 666.7 42.7 700 41.8C733.3 41 766.7 43 800 43.3C833.3 43.7 866.7 42.3 883.3 41.7L900 41L900 0L883.3 0C866.7 0 833.3 0 800 0C766.7 0 733.3 0 700 0C666.7 0 633.3 0 600 0C566.7 0 533.3 0 500 0C466.7 0 433.3 0 400 0C366.7 0 333.3 0 300 0C266.7 0 233.3 0 200 0C166.7 0 133.3 0 100 0C66.7 0 33.3 0 16.7 0L0 0Z" fill="#001122"></path><path d="M0 36L16.7 34.5C33.3 33 66.7 30 100 30C133.3 30 166.7 33 200 33.7C233.3 34.3 266.7 32.7 300 32.8C333.3 33 366.7 35 400 35.3C433.3 35.7 466.7 34.3 500 33.3C533.3 32.3 566.7 31.7 600 31.3C633.3 31 666.7 31 700 31.2C733.3 31.3 766.7 31.7 800 32.2C833.3 32.7 866.7 33.3 883.3 33.7L900 34L900 0L883.3 0C866.7 0 833.3 0 800 0C766.7 0 733.3 0 700 0C666.7 0 633.3 0 600 0C566.7 0 533.3 0 500 0C466.7 0 433.3 0 400 0C366.7 0 333.3 0 300 0C266.7 0 233.3 0 200 0C166.7 0 133.3 0 100 0C66.7 0 33.3 0 16.7 0L0 0Z" fill="#00173b"></path><path d="M0 15L16.7 16.3C33.3 17.7 66.7 20.3 100 20.5C133.3 20.7 166.7 18.3 200 19.2C233.3 20 266.7 24 300 24.2C333.3 24.3 366.7 20.7 400 20.7C433.3 20.7 466.7 24.3 500 26.2C533.3 28 566.7 28 600 26.8C633.3 25.7 666.7 23.3 700 22.7C733.3 22 766.7 23 800 24C833.3 25 866.7 26 883.3 26.5L900 27L900 0L883.3 0C866.7 0 833.3 0 800 0C766.7 0 733.3 0 700 0C666.7 0 633.3 0 600 0C566.7 0 533.3 0 500 0C466.7 0 433.3 0 400 0C366.7 0 333.3 0 300 0C266.7 0 233.3 0 200 0C166.7 0 133.3 0 100 0C66.7 0 33.3 0 16.7 0L0 0Z" fill="#001852"></path><path d="M0 12L16.7 12.5C33.3 13 66.7 14 100 14C133.3 14 166.7 13 200 13.3C233.3 13.7 266.7 15.3 300 14.3C333.3 13.3 366.7 9.7 400 9.2C433.3 8.7 466.7 11.3 500 11.2C533.3 11 566.7 8 600 6.7C633.3 5.3 666.7 5.7 700 7.2C733.3 8.7 766.7 11.3 800 11.7C833.3 12 866.7 10 883.3 9L900 8L900 0L883.3 0C866.7 0 833.3 0 800 0C766.7 0 733.3 0 700 0C666.7 0 633.3 0 600 0C566.7 0 533.3 0 500 0C466.7 0 433.3 0 400 0C366.7 0 333.3 0 300 0C266.7 0 233.3 0 200 0C166.7 0 133.3 0 100 0C66.7 0 33.3 0 16.7 0L0 0Z" fill="#091466"></path></svg>