<svg id="visual" viewBox="0 0 900 600" width="900" height="600" xmlns="http://www.w3.org/2000/svg" xmlns:xlink="http://www.w3.org/1999/xlink" version="1.1"><rect x="0" y="0" width="900" height="600" fill="#c0c3c7"></rect><path d="M0 46L8.3 44.2C16.7 42.3 33.3 38.7 50 33.7C66.7 28.7 83.3 22.3 100 19C116.7 15.7 133.3 15.3 150 14C166.7 12.7 183.3 10.3 200 13.7C216.7 17 233.3 26 250 33.3C266.7 40.7 283.3 46.3 300 48C316.7 49.7 333.3 47.3 350 44C366.7 40.7 383.3 36.3 400 31.7C416.7 27 433.3 22 450 19.5C466.7 17 483.3 17 500 22.3C516.7 27.7 533.3 38.3 550 39.8C566.7 41.3 583.3 33.7 600 28.3C616.7 23 633.3 20 650 22.3C666.7 24.7 683.3 32.3 700 30.7C716.7 29 733.3 18 750 20.3C766.7 22.7 783.3 38.3 800 45C816.7 51.7 833.3 49.3 850 43.5C866.7 37.7 883.3 28.3 891.7 23.7L900 19L900 0L891.7 0C883.3 0 866.7 0 850 0C833.3 0 816.7 0 800 0C783.3 0 766.7 0 750 0C733.3 0 716.7 0 700 0C683.3 0 666.7 0 650 0C633.3 0 616.7 0 600 0C583.3 0 566.7 0 550 0C533.3 0 516.7 0 500 0C483.3 0 466.7 0 450 0C433.3 0 416.7 0 400 0C383.3 0 366.7 0 350 0C333.3 0 316.7 0 300 0C283.3 0 266.7 0 250 0C233.3 0 216.7 0 200 0C183.3 0 166.7 0 150 0C133.3 0 116.7 0 100 0C83.3 0 66.7 0 50 0C33.3 0 16.7 0 8.3 0L0 0Z" fill="#001122" stroke-linecap="round" stroke-linejoin="miter"></path></svg>