<svg id="visual" viewBox="0 0 900 600" width="900" height="600" xmlns="http://www.w3.org/2000/svg" xmlns:xlink="http://www.w3.org/1999/xlink" version="1.1"><rect x="0" y="0" width="900" height="600" fill="#FFFFFF"></rect><path d="M0 101L16.7 99C33.3 97 66.7 93 100 92C133.3 91 166.7 93 200 92.7C233.3 92.3 266.7 89.7 300 88.7C333.3 87.7 366.7 88.3 400 86.8C433.3 85.3 466.7 81.7 500 82C533.3 82.3 566.7 86.7 600 88.8C633.3 91 666.7 91 700 91.2C733.3 91.3 766.7 91.7 800 91.2C833.3 90.7 866.7 89.3 883.3 88.7L900 88L900 0L883.3 0C866.7 0 833.3 0 800 0C766.7 0 733.3 0 700 0C666.7 0 633.3 0 600 0C566.7 0 533.3 0 500 0C466.7 0 433.3 0 400 0C366.7 0 333.3 0 300 0C266.7 0 233.3 0 200 0C166.7 0 133.3 0 100 0C66.7 0 33.3 0 16.7 0L0 0Z" fill="#4facf7"></path><path d="M0 63L16.7 65.7C33.3 68.3 66.7 73.7 100 72C133.3 70.3 166.7 61.7 200 61.2C233.3 60.7 266.7 68.3 300 69.5C333.3 70.7 366.7 65.3 400 65C433.3 64.7 466.7 69.3 500 72.2C533.3 75 566.7 76 600 74.7C633.3 73.3 666.7 69.7 700 65.7C733.3 61.7 766.7 57.3 800 56.2C833.3 55 866.7 57 883.3 58L900 59L900 0L883.3 0C866.7 0 833.3 0 800 0C766.7 0 733.3 0 700 0C666.7 0 633.3 0 600 0C566.7 0 533.3 0 500 0C466.7 0 433.3 0 400 0C366.7 0 333.3 0 300 0C266.7 0 233.3 0 200 0C166.7 0 133.3 0 100 0C66.7 0 33.3 0 16.7 0L0 0Z" fill="#2e77c9"></path><path d="M0 53L16.7 49.3C33.3 45.7 66.7 38.3 100 37C133.3 35.7 166.7 40.3 200 43.8C233.3 47.3 266.7 49.7 300 49.7C333.3 49.7 366.7 47.3 400 47.5C433.3 47.7 466.7 50.3 500 51.7C533.3 53 566.7 53 600 52.7C633.3 52.3 666.7 51.7 700 51.2C733.3 50.7 766.7 50.3 800 48.8C833.3 47.3 866.7 44.7 883.3 43.3L900 42L900 0L883.3 0C866.7 0 833.3 0 800 0C766.7 0 733.3 0 700 0C666.7 0 633.3 0 600 0C566.7 0 533.3 0 500 0C466.7 0 433.3 0 400 0C366.7 0 333.3 0 300 0C266.7 0 233.3 0 200 0C166.7 0 133.3 0 100 0C66.7 0 33.3 0 16.7 0L0 0Z" fill="#174598"></path><path d="M0 30L16.7 29.5C33.3 29 66.7 28 100 26C133.3 24 166.7 21 200 20.3C233.3 19.7 266.7 21.3 300 23.3C333.3 25.3 366.7 27.7 400 27.8C433.3 28 466.7 26 500 23.8C533.3 21.7 566.7 19.3 600 19.2C633.3 19 666.7 21 700 21.2C733.3 21.3 766.7 19.7 800 21.7C833.3 23.7 866.7 29.3 883.3 32.2L900 35L900 0L883.3 0C866.7 0 833.3 0 800 0C766.7 0 733.3 0 700 0C666.7 0 633.3 0 600 0C566.7 0 533.3 0 500 0C466.7 0 433.3 0 400 0C366.7 0 333.3 0 300 0C266.7 0 233.3 0 200 0C166.7 0 133.3 0 100 0C66.7 0 33.3 0 16.7 0L0 0Z" fill="#091466"></path></svg>