<svg id="visual" viewBox="0 0 900 600" width="900" height="600" xmlns="http://www.w3.org/2000/svg" xmlns:xlink="http://www.w3.org/1999/xlink" version="1.1"><rect x="0" y="0" width="900" height="600" fill="#012c6d"></rect><path d="M0 105L7.2 101.5C14.3 98 28.7 91 43 82.3C57.3 73.7 71.7 63.3 86 64.3C100.3 65.3 114.7 77.7 128.8 91.2C143 104.7 157 119.3 171.2 116.5C185.3 113.7 199.7 93.3 214 90C228.3 86.7 242.7 100.3 257 96.5C271.3 92.7 285.7 71.3 300 67.8C314.3 64.3 328.7 78.7 343 88C357.3 97.3 371.7 101.7 386 106.8C400.3 112 414.7 118 428.8 116C443 114 457 104 471.2 91C485.3 78 499.7 62 514 57.8C528.3 53.7 542.7 61.3 557 69.7C571.3 78 585.7 87 600 91.2C614.3 95.3 628.7 94.7 643 92.3C657.3 90 671.7 86 686 93.2C700.3 100.3 714.7 118.7 728.8 121.3C743 124 757 111 771.2 102C785.3 93 799.7 88 814 95C828.3 102 842.7 121 857 117.7C871.3 114.3 885.7 88.7 892.8 75.8L900 63L900 0L892.8 0C885.7 0 871.3 0 857 0C842.7 0 828.3 0 814 0C799.7 0 785.3 0 771.2 0C757 0 743 0 728.8 0C714.7 0 700.3 0 686 0C671.7 0 657.3 0 643 0C628.7 0 614.3 0 600 0C585.7 0 571.3 0 557 0C542.7 0 528.3 0 514 0C499.7 0 485.3 0 471.2 0C457 0 443 0 428.8 0C414.7 0 400.3 0 386 0C371.7 0 357.3 0 343 0C328.7 0 314.3 0 300 0C285.7 0 271.3 0 257 0C242.7 0 228.3 0 214 0C199.7 0 185.3 0 171.2 0C157 0 143 0 128.8 0C114.7 0 100.3 0 86 0C71.7 0 57.3 0 43 0C28.7 0 14.3 0 7.2 0L0 0Z" fill="#FFFFFF" stroke-linecap="round" stroke-linejoin="miter"></path></svg>